<svg width="56" height="56" viewBox="0 0 56 56" fill="none" xmlns="http://www.w3.org/2000/svg">
<path d="M28 7.47356H28.0134C28.2641 7.48056 28.4655 7.68632 28.4655 7.93871V28.0008C28.4655 28.2579 28.2571 28.4661 28.0002 28.4661H12.2301C11.9731 28.4661 11.7647 28.2579 11.7647 28.0008C11.7647 27.7437 11.9731 27.5354 12.2301 27.5354H27.0347H27.5347V27.0354V7.9389C27.5347 7.68179 27.743 7.47356 28 7.47356ZM0.5 28C0.5 12.8371 12.8371 0.5 28 0.5C43.1629 0.5 55.5 12.8371 55.5 28C55.5 43.1629 43.1629 55.5 28 55.5C12.8371 55.5 0.5 43.1629 0.5 28ZM1.43103 28C1.43103 42.6509 13.3491 54.569 28 54.569C42.6509 54.569 54.569 42.6509 54.569 28C54.569 13.3491 42.6509 1.43103 28 1.43103C13.3491 1.43103 1.43103 13.3491 1.43103 28Z" fill="white" stroke="url(#paint0_linear_46_445)"/>
<defs>
<linearGradient id="paint0_linear_46_445" x1="1.18219e-06" y1="10.0333" x2="51.8212" y2="3.53626" gradientUnits="userSpaceOnUse">
<stop stop-color="#D4EFFF"/>
<stop offset="0.332493" stop-color="#B8FFFC"/>
<stop offset="1" stop-color="#E4FFCC"/>
</linearGradient>
</defs>
</svg>
