<svg width="64" height="64" viewBox="0 0 64 64" fill="none" xmlns="http://www.w3.org/2000/svg">
<rect width="64" height="64" rx="32" fill="#0F2042"/>
<path d="M36.9432 16.5293C37.0789 16.1698 37.3431 16 37.6747 16C37.823 16 37.9746 16.0242 38.1313 16.0756C38.5716 16.2313 38.7196 16.4867 38.7196 16.7287C38.7196 16.8268 38.7011 16.9397 38.6454 17.108L26.9833 47.4679L26.979 47.4801C26.899 47.7051 26.8013 47.8275 26.7133 47.8946C26.6295 47.9585 26.5187 48 26.3548 48C26.213 48 26.0744 47.9783 25.8991 47.9036L25.8911 47.9002L25.8829 47.8971C25.3185 47.679 25.206 47.4607 25.206 47.2713C25.206 47.169 25.2263 47.0611 25.2732 46.9446L36.9423 16.5318L36.9432 16.5293Z" fill="white"/>
<path d="M14.6309 20.3401C14.6309 19.0731 15.0265 18.1353 15.6906 17.5117C16.3587 16.8844 17.3617 16.5159 18.6876 16.5159H20.1415C20.4678 16.5159 20.5943 16.6084 20.6563 16.6843C20.7356 16.7813 20.8057 16.9699 20.8057 17.3134C20.8057 17.6354 20.7373 17.8151 20.6594 17.9088C20.597 17.9837 20.468 18.0765 20.1415 18.0765H19.7607C18.6597 18.0765 17.7889 18.2234 17.2208 18.7641C16.6441 19.3129 16.5131 20.1376 16.5131 21.0968V26.2217C16.5131 28.4045 16.4218 29.5803 16.1694 30.3022C16.0504 30.6426 15.8995 30.8672 15.709 31.0468C15.5104 31.2342 15.2468 31.3938 14.8661 31.5747L13.8988 32.0344L14.8661 32.4941C15.2505 32.6767 15.5147 32.833 15.7136 33.016C15.9031 33.1904 16.0523 33.4069 16.1702 33.7388C16.4215 34.4462 16.5131 35.6114 16.5131 37.8127V42.9032C16.5131 43.8719 16.6329 44.707 17.2038 45.2622C17.7694 45.8122 18.6455 45.9579 19.7607 45.9579H20.1415C20.4675 45.9579 20.5917 46.05 20.6534 46.1269C20.734 46.2275 20.8057 46.4251 20.8057 46.7898C20.8057 47.0898 20.7393 47.2743 20.6563 47.3759C20.5892 47.4582 20.4575 47.5529 20.1415 47.5529H18.6876C17.3617 47.5529 16.3587 47.1844 15.6906 46.557C15.0265 45.9334 14.6309 44.9957 14.6309 43.7286V37.4344C14.6309 35.9879 14.5673 34.9707 14.2928 34.2736C14.1473 33.9043 13.9376 33.6079 13.6408 33.3826C13.3513 33.1628 13.0109 33.035 12.6439 32.9487L12.6346 32.9467C12.3165 32.878 12.1934 32.7743 12.1309 32.6837C12.0574 32.5771 12 32.3912 12 32.0344C12 31.6883 12.0624 31.5035 12.1409 31.3955C12.2121 31.2976 12.3487 31.1915 12.6693 31.1223L12.6815 31.1193C13.0464 31.0311 13.3824 30.8963 13.6671 30.6669C13.9565 30.4336 14.1591 30.1301 14.2996 29.7587C14.5667 29.0527 14.6309 28.0319 14.6309 26.6V20.3401Z" fill="white"/>
<path d="M43.1597 17.3134C43.1597 16.9697 43.2299 16.7842 43.3097 16.6887C43.3735 16.6124 43.5085 16.5159 43.8585 16.5159H45.2778C46.6225 16.5159 47.6342 16.8852 48.3061 17.5127C48.9736 18.1361 49.3691 19.0731 49.3691 20.3401V26.6C49.3691 28.0285 49.4244 29.0581 49.6859 29.7676C49.8238 30.1416 50.026 30.45 50.3217 30.6841C50.6126 30.9144 50.9579 31.0441 51.334 31.1228L51.3429 31.1247L51.3518 31.1262C51.6568 31.1789 51.7869 31.2814 51.8565 31.379C51.9372 31.4921 52 31.6872 52 32.0344C52 32.3682 51.9338 32.5448 51.8525 32.6518C51.7721 32.7577 51.6225 32.8668 51.3047 32.9529L51.2935 32.9562C50.9413 33.0602 50.6142 33.1977 50.3361 33.4182C50.0503 33.6447 49.8457 33.9354 49.7027 34.3C49.4328 34.9881 49.3691 35.9876 49.3691 37.4344V43.7286C49.3691 44.9957 48.9736 45.9327 48.3061 46.5561C47.6342 47.1836 46.6225 47.5529 45.2778 47.5529H43.8585C43.5417 47.5529 43.396 47.4572 43.3191 47.3672C43.2298 47.2627 43.1597 47.0789 43.1597 46.7898C43.1597 46.4353 43.236 46.2384 43.3221 46.1357C43.3933 46.0508 43.5319 45.9579 43.8585 45.9579H44.2047C45.3358 45.9579 46.2199 45.8126 46.7899 45.2641C47.3672 44.7086 47.4869 43.8717 47.4869 42.9032V37.8127C47.4869 35.6095 47.5698 34.4434 47.8141 33.7343C47.9285 33.4021 48.0741 33.1867 48.2596 33.0138C48.4545 32.8322 48.7155 32.6764 49.0993 32.4941L50.0666 32.0344L49.0993 31.5747C48.7192 31.3941 48.4588 31.235 48.2642 31.0491C48.0776 30.8709 47.9304 30.6475 47.8149 30.3068C47.5696 29.5832 47.4869 28.4064 47.4869 26.2217V21.0968C47.4869 20.1377 47.356 19.3114 46.773 18.7622C46.2004 18.223 45.3215 18.0765 44.2047 18.0765H43.8585C43.5314 18.0765 43.3881 17.9829 43.3159 17.9C43.232 17.8037 43.1597 17.6245 43.1597 17.3134Z" fill="white"/>
</svg>
