<svg width="56" height="56" viewBox="0 0 56 56" fill="none" xmlns="http://www.w3.org/2000/svg">
<path d="M39.0776 19.2444L38.9214 19.2457C33.4266 19.3451 29.598 23.8395 27.9721 26.1824C26.3463 23.8404 22.5177 19.3456 17.0229 19.2457L16.8667 19.2444C12.1123 19.2444 8.24512 23.1749 8.24512 28.0065C8.24512 32.8373 12.1709 36.7674 16.9956 36.7674H17.0081C22.6279 36.76 26.3706 32.2913 27.9735 29.8963C29.5764 32.2913 33.3185 36.7599 38.9388 36.7674H38.9514H38.9518C41.2891 36.7674 43.4865 35.8551 45.1394 34.1997C46.7913 32.5447 47.7011 30.3455 47.7011 28.0066C47.6993 23.1751 43.8317 19.2445 39.0778 19.2445L39.0776 19.2444ZM17.0043 34.8999L16.9943 35.8331V34.8999C13.1987 34.8999 10.1106 31.8075 10.1106 28.0058C10.1106 24.2042 13.141 21.1104 16.8654 21.1104L16.9874 21.1108C22.2795 21.2067 25.9635 26.458 26.9423 28.0202C26.0087 29.5987 22.4653 34.8926 17.0044 34.8999L17.0043 34.8999ZM43.8165 32.8795C42.5162 34.1825 40.7874 34.8999 38.9493 34.8999V35.8331L38.9393 34.8999C33.4953 34.8926 29.9384 29.5962 29.0001 28.0179C29.9762 26.4551 33.6481 21.2072 38.955 21.1113L39.0769 21.1108C42.8017 21.1108 45.8317 24.2037 45.8317 28.0063C45.8326 29.8462 45.1169 31.5775 43.8165 32.8795L43.8165 32.8795Z" fill="url(#paint0_linear_46_457)"/>
<path d="M28 0C12.5611 0 0 12.5611 0 28C0 43.4389 12.5611 56 28 56C43.4389 56 56 43.4389 56 28C56 12.5611 43.4389 0 28 0ZM28 54.1333C13.59 54.1333 1.86667 42.41 1.86667 28C1.86667 13.59 13.59 1.86667 28 1.86667C42.41 1.86667 54.1333 13.59 54.1333 28C54.1333 42.41 42.41 54.1333 28 54.1333Z" fill="url(#paint1_linear_46_457)"/>
<defs>
<linearGradient id="paint0_linear_46_457" x1="8.24512" y1="22.3839" x2="42.5934" y2="12.6873" gradientUnits="userSpaceOnUse">
<stop stop-color="#D4EFFF"/>
<stop offset="0.332493" stop-color="#B8FFFC"/>
<stop offset="1" stop-color="#E4FFCC"/>
</linearGradient>
<linearGradient id="paint1_linear_46_457" x1="1.18219e-06" y1="10.0333" x2="51.8212" y2="3.53626" gradientUnits="userSpaceOnUse">
<stop stop-color="#D4EFFF"/>
<stop offset="0.332493" stop-color="#B8FFFC"/>
<stop offset="1" stop-color="#E4FFCC"/>
</linearGradient>
</defs>
</svg>
