<svg width="64" height="60" viewBox="0 0 64 60" fill="none" xmlns="http://www.w3.org/2000/svg">
<rect width="64" height="60" rx="30" fill="#0F2042"/>
<path d="M34.6011 44.3746C34.4801 44.4829 34.3586 44.5917 34.2365 44.701C34.2354 44.702 34.2343 44.7029 34.2333 44.7039L32.0001 46.6682L29.7668 44.7039C29.7656 44.7029 29.7645 44.7019 29.7634 44.7009C29.639 44.5895 29.5151 44.4786 29.3918 44.3683C24.3908 39.892 20.314 36.2429 17.4553 32.8169C14.5376 29.3203 13 26.1832 13 22.7905C13 17.2788 17.3339 13 22.9996 13C26.8101 13 28.8158 15.3319 30.9678 17.8338C31.0592 17.9401 31.1508 18.0466 31.2429 18.1533L32.0001 19.0308L32.7572 18.1532C33.0389 17.8266 33.3043 17.5071 33.5622 17.1966C34.3777 16.2147 35.1185 15.3227 36.0663 14.5812C37.2448 13.6592 38.7291 13 41.0004 13C46.6665 13 51 17.2785 51 22.7905C51 26.1832 49.4624 29.3205 46.5448 32.8172C43.6847 36.2449 39.6054 39.8959 34.6011 44.3746Z" stroke="white" stroke-width="2"/>
</svg>
