<svg width="64" height="64" viewBox="0 0 64 64" fill="none" xmlns="http://www.w3.org/2000/svg">
<rect width="64" height="64" rx="32" fill="#0F2042"/>
<path fill-rule="evenodd" clip-rule="evenodd" d="M50.3227 19.6769C50.7563 20.1109 51 20.6992 51 21.3126C51 21.926 50.7563 22.5143 50.3227 22.9483L27.9324 45.3232C27.498 45.7565 26.9093 46 26.2955 46C25.6817 46 25.093 45.7565 24.6587 45.3232L14.6217 35.2931C14.2125 34.8543 13.9898 34.2739 14.0004 33.6743C14.011 33.0746 14.254 32.5025 14.6784 32.0784C15.1028 31.6543 15.6753 31.4114 16.2754 31.4008C16.8755 31.3902 17.4562 31.6128 17.8953 32.0217L26.2955 40.4161L47.0491 19.6769C47.4833 19.2435 48.072 19 48.6859 19C49.2996 19 49.8885 19.2435 50.3227 19.6769Z" fill="white"/>
</svg>
