<svg width="56" height="56" viewBox="0 0 56 56" fill="none" xmlns="http://www.w3.org/2000/svg">
<path d="M9.33268 17.0833H46.666C48.8291 17.0833 50.5827 18.8368 50.5827 20.9999V44.3333C50.5827 46.4964 48.8291 48.2499 46.666 48.2499H9.33268C7.16957 48.2499 5.41602 46.4964 5.41602 44.3333V20.9999C5.41602 18.8368 7.16957 17.0833 9.33268 17.0833Z" stroke="url(#paint0_linear_439_304)" stroke-width="1.5" stroke-linecap="round" stroke-linejoin="round"/>
<mask id="path-2-inside-1_439_304" fill="white">
<path d="M37.3327 49V11.6667C37.3327 10.429 36.841 9.242 35.9658 8.36683C35.0907 7.49167 33.9037 7 32.666 7H23.3327C22.095 7 20.908 7.49167 20.0329 8.36683C19.1577 9.242 18.666 10.429 18.666 11.6667V49"/>
</mask>
<path d="M35.8327 49C35.8327 49.8284 36.5043 50.5 37.3327 50.5C38.1611 50.5 38.8327 49.8284 38.8327 49H35.8327ZM32.666 7V5.5V7ZM23.3327 7V5.5V7ZM18.666 11.6667H17.166H18.666ZM17.166 49C17.166 49.8284 17.8376 50.5 18.666 50.5C19.4944 50.5 20.166 49.8284 20.166 49H17.166ZM38.8327 49V11.6667H35.8327V49H38.8327ZM38.8327 11.6667C38.8327 10.0312 38.183 8.46265 37.0265 7.30617L34.9052 9.4275C35.4991 10.0214 35.8327 10.8268 35.8327 11.6667H38.8327ZM37.0265 7.30617C35.87 6.1497 34.3015 5.5 32.666 5.5L32.666 8.5C33.5059 8.5 34.3113 8.83363 34.9052 9.4275L37.0265 7.30617ZM32.666 5.5H23.3327V8.5H32.666V5.5ZM23.3327 5.5C21.6972 5.5 20.1287 6.1497 18.9722 7.30617L21.0935 9.4275C21.6874 8.83363 22.4928 8.5 23.3327 8.5V5.5ZM18.9722 7.30617C17.8157 8.46265 17.166 10.0312 17.166 11.6667H20.166C20.166 10.8268 20.4996 10.0214 21.0935 9.4275L18.9722 7.30617ZM17.166 11.6667V49H20.166V11.6667H17.166Z" fill="url(#paint1_linear_439_304)" mask="url(#path-2-inside-1_439_304)"/>
<defs>
<linearGradient id="paint0_linear_439_304" x1="4.66602" y1="22.186" x2="47.1658" y2="14.574" gradientUnits="userSpaceOnUse">
<stop stop-color="#D4EFFF"/>
<stop offset="0.332493" stop-color="#B8FFFC"/>
<stop offset="1" stop-color="#E4FFCC"/>
</linearGradient>
<linearGradient id="paint1_linear_439_304" x1="18.666" y1="14.525" x2="36.157" y2="13.5504" gradientUnits="userSpaceOnUse">
<stop stop-color="#D4EFFF"/>
<stop offset="0.332493" stop-color="#B8FFFC"/>
<stop offset="1" stop-color="#E4FFCC"/>
</linearGradient>
</defs>
</svg>
