<svg width="64" height="64" viewBox="0 0 64 64" fill="none" xmlns="http://www.w3.org/2000/svg">
<rect width="64" height="64" rx="32" fill="#0F2042"/>
<path d="M32.0288 29.1355C30.4955 29.1355 29.0241 28.5497 27.9401 27.5063C26.8559 26.4638 26.2467 25.0497 26.2467 23.5753C26.2467 22.1001 26.8559 20.686 27.9401 19.6437C29.0243 18.6011 30.4957 18.0154 32.0288 18.0154C33.5621 18.0154 35.0336 18.6011 36.1176 19.6437C37.2017 20.6862 37.8109 22.1003 37.8109 23.5753C37.7963 23.8856 37.9142 24.1892 38.1379 24.4143C38.3616 24.6385 38.6714 24.7659 38.9949 24.7659C39.3184 24.7659 39.6282 24.6385 39.8519 24.4143C40.0756 24.1892 40.1935 23.8856 40.1789 23.5753C40.1763 21.6905 39.469 19.8703 38.1861 18.4454C36.904 17.0207 35.1315 16.0865 33.192 15.8143V13.1914C33.2066 12.8803 33.0888 12.5775 32.865 12.3525C32.6413 12.1274 32.3316 12 32.008 12C31.6845 12 31.3747 12.1274 31.151 12.3525C30.9273 12.5775 30.8094 12.8804 30.8241 13.1914V15.8044C28.0757 16.1874 25.719 17.8885 24.5687 20.3193C23.4183 22.7495 23.6334 25.5757 25.1383 27.8196C26.6432 30.0635 29.2323 31.417 32.0098 31.4121C34.0353 31.4121 35.9791 32.1858 37.4116 33.5642C38.8442 34.9418 39.6487 36.81 39.6487 38.7584C39.6487 40.7069 38.8442 42.5753 37.4116 43.9527C35.9789 45.3303 34.0352 46.1047 32.0098 46.1047C29.9834 46.1047 28.0398 45.3303 26.6071 43.9527C25.1745 42.5751 24.37 40.7069 24.37 38.7584C24.3846 38.4473 24.2659 38.1445 24.0422 37.9195C23.8193 37.6944 23.5096 37.567 23.186 37.567C22.8616 37.567 22.5528 37.6944 22.329 37.9195C22.1053 38.1445 21.9866 38.4473 22.0012 38.7584C22.0055 41.1123 22.9047 43.3836 24.53 45.1435C26.1552 46.9034 28.3942 48.0303 30.8241 48.3124V50.912C30.8525 51.5209 31.3748 52 32.008 52C32.6422 52 33.1636 51.5209 33.192 50.912V48.3124C36.5986 47.9169 39.556 45.8717 41.0298 42.8921C42.5029 39.9136 42.2878 36.4162 40.4576 33.6262C38.6283 30.8354 35.4395 29.1409 32.0096 29.1352L32.0288 29.1355Z" fill="white"/>
</svg>
