<svg width="56" height="40" viewBox="0 0 56 40" fill="none" xmlns="http://www.w3.org/2000/svg">
<path d="M55.9365 14.1897C55.7323 13.7968 50.9201 4.54852 49.6223 2.95732C48.9168 2.09258 48.4912 1.57061 47.7821 1.57061C47.1613 1.57061 46.6033 1.97299 45.409 2.8354C42.9614 4.39569 41.0091 5.03235 38.6704 5.03235C37.0898 5.03235 35.3809 4.75271 33.2167 4.39879C32.6822 4.311 32.1213 4.21964 31.5304 4.12669C30.2872 3.93166 29.1553 3.83236 28.1672 3.83236C25.8213 3.83236 24.6679 4.37615 24.1119 4.83096C21.1492 2.46317 17.6438 2.81786 15.5068 3.03791C15.2566 3.06373 15.0225 3.08796 14.807 3.10583C13.3034 3.2393 10.9449 1.04433 10.1673 0.190663C10.0588 0.0710997 9.90331 0.0019829 9.73971 0C9.59554 0.00198615 9.41979 0.0643487 9.30842 0.181929C9.00388 0.504867 1.8328 8.08414 0.134772 10.0829C0.0298881 10.206 -0.0170854 10.3669 0.00558742 10.5254C0.0282655 10.6843 0.11776 10.8265 0.252615 10.9171C1.86677 12.0015 6.7786 15.3003 7.51726 18.1237C8.4746 21.9314 10.0419 23.7217 10.7995 24.4002L9.96161 25.3022C8.73176 26.6262 8.7159 28.5844 9.92719 29.6673C10.431 30.1173 11.1024 30.3652 11.8171 30.3652C11.9601 30.3652 12.1022 30.3525 12.2435 30.3334C12.1561 30.6194 12.0945 30.9106 12.0884 31.2081C12.071 32.0494 12.3901 32.8053 12.9858 33.3375C13.4896 33.7876 14.1606 34.0354 14.8755 34.0354C15.44 34.0354 15.9972 33.8837 16.4985 33.6084C16.5257 34.3798 16.8278 35.0722 17.3822 35.5671C17.8859 36.0172 18.5574 36.265 19.2721 36.265C19.9751 36.265 20.6688 36.0331 21.2548 35.6144C21.3159 36.3234 21.6087 36.9597 22.1263 37.4217C22.6296 37.8717 23.3007 38.1196 24.0159 38.1196C24.957 38.1196 25.8815 37.7049 26.553 36.9819L27.0706 36.4246L30.203 39.1384C30.8449 39.6949 31.652 40 32.4805 40H32.5218C33.3864 39.9893 34.1627 39.6497 34.7074 39.0439C35.2116 38.485 35.4473 37.7605 35.4076 36.9903C35.915 37.2672 36.4775 37.4237 37.0534 37.4237C37.0672 37.4237 37.0805 37.4237 37.0947 37.4233C37.9589 37.4126 38.7356 37.0734 39.2803 36.468C39.8375 35.8495 40.0651 35.0475 39.9829 34.2519C40.3486 34.3822 40.7329 34.4549 41.1229 34.4549H41.1638C42.0284 34.4442 42.8051 34.1046 43.3494 33.4988C43.9244 32.8605 44.1419 32.0267 44.0358 31.2065C44.3488 31.3006 44.6724 31.3606 45.0065 31.3606C45.0664 31.3606 45.1272 31.359 45.1879 31.3554C46.0699 31.3094 46.873 30.9304 47.4496 30.2901C48.0267 29.6501 48.311 28.8216 48.249 27.9573C48.1878 27.0969 47.791 26.3084 47.1317 25.7372L44.069 23.0842C45.5981 21.3324 51.7026 17.3528 55.7226 14.9338C55.9814 14.7785 56.0742 14.4547 55.9365 14.1898L55.9365 14.1897ZM10.7089 28.8255C9.97149 28.1661 10.0209 26.9296 10.8199 26.07L13.1383 23.5731C13.5902 23.0865 14.2017 22.8072 14.8168 22.8072C15.2481 22.8072 15.6308 22.9459 15.9249 23.208C16.2691 23.5155 16.4533 23.9647 16.4432 24.4728C16.4323 25.0091 16.2087 25.5382 15.8143 25.9636L14.473 27.4078L13.4958 28.4605C13.0439 28.9471 12.4324 29.2263 11.8173 29.2263C11.3856 29.2263 11.0025 29.0873 10.7089 28.8255H10.7089ZM13.7672 32.4958C13.423 32.1884 13.2387 31.7391 13.2489 31.231C13.2598 30.6948 13.4829 30.1657 13.8774 29.7407L19.0905 24.1265C19.5424 23.6399 20.1543 23.3606 20.7694 23.3606C21.2007 23.3606 21.5834 23.4993 21.877 23.761C22.6141 24.42 22.5655 25.6545 21.7681 26.5149L21.7665 26.5165L17.4151 31.2029C17.4147 31.2033 17.4139 31.2044 17.4135 31.2052L16.5537 32.1311C16.1022 32.6177 15.4903 32.897 14.8752 32.897C14.4439 32.8966 14.0608 32.7576 13.7672 32.4958L13.7672 32.4958ZM19.2715 35.1262C18.8402 35.1262 18.4571 34.9871 18.1635 34.7254C17.8193 34.4179 17.635 33.9687 17.6451 33.4606C17.6561 32.9251 17.8788 32.3968 18.2716 31.9718L22.625 27.2838C23.0769 26.7972 23.6889 26.518 24.3035 26.518C24.7348 26.518 25.1175 26.6566 25.4116 26.9188C25.7558 27.2262 25.94 27.6755 25.9299 28.1827C25.919 28.7194 25.6958 29.2481 25.3014 29.6735L23.6059 31.4991L22.1598 33.0565C22.1594 33.0569 22.1589 33.0577 22.1585 33.0581L20.9502 34.3594C20.4986 34.8468 19.8863 35.126 19.2716 35.126L19.2715 35.1262ZM24.0153 36.9807C23.584 36.9807 23.2013 36.8421 22.9073 36.5799C22.5631 36.2725 22.3788 35.8232 22.3889 35.3152C22.3999 34.7789 22.6226 34.2502 23.017 33.8248L23.3483 33.4685L25.4408 31.2151C25.8927 30.7285 26.5047 30.4493 27.1197 30.4493C27.551 30.4493 27.9337 30.5879 28.2278 30.8501C28.572 31.1575 28.7563 31.6068 28.7457 32.1141C28.7348 32.6507 28.5117 33.1802 28.1168 33.6056L26.5909 35.2489C26.5909 35.2493 26.5905 35.2493 26.5905 35.2493C26.5905 35.2493 26.5905 35.2497 26.5901 35.2497L25.6939 36.2149C25.2419 36.7015 24.6304 36.9807 24.0153 36.9807L24.0153 36.9807ZM47.0904 28.0362C47.1301 28.5935 46.9487 29.1258 46.5789 29.5353C46.21 29.9456 45.6941 30.1875 45.1259 30.2177C44.5472 30.2471 44.0029 30.0592 43.5736 29.6878L37.3704 24.3127C37.1298 24.1054 36.7637 24.1265 36.5511 24.3624C36.4977 24.422 36.4592 24.4887 36.4353 24.5594C36.3616 24.7707 36.4187 25.013 36.5997 25.1699L42.1214 29.9548C43.0099 30.7254 43.1703 31.9767 42.4786 32.7452C42.1538 33.1067 41.6816 33.3093 41.1491 33.3156H41.1224C40.5777 33.3156 40.0424 33.1115 39.6131 32.7401L34.666 28.4525L34.5579 28.3584C34.3181 28.1498 33.9508 28.1705 33.7382 28.406C33.6848 28.4648 33.6463 28.5324 33.622 28.6023C33.6123 28.6325 33.6147 28.6634 33.6102 28.694C33.603 28.7357 33.5908 28.7762 33.5932 28.8188C33.5957 28.8545 33.6115 28.8879 33.6204 28.922C33.6293 28.9582 33.6321 28.9959 33.6487 29.0301C33.6576 29.0483 33.6758 29.063 33.6872 29.0801C33.7159 29.1262 33.7439 29.1723 33.7868 29.2104L38.0527 32.9236C38.9416 33.6942 39.1019 34.9455 38.4098 35.7137C38.0843 36.0752 37.6121 36.2781 37.08 36.2849C36.53 36.2964 35.9812 36.0871 35.5411 35.7062L31.2873 32.0819L31.2845 32.0791L31.2804 32.076C31.2533 32.0533 31.2205 32.0438 31.191 32.0263C31.1545 32.0053 31.1213 31.9787 31.082 31.9655C31.0423 31.9528 31.0002 31.954 30.9589 31.9493C30.9265 31.9465 30.8949 31.9358 30.8625 31.9377C30.7957 31.9421 30.7309 31.9612 30.6685 31.9874C30.6625 31.9902 30.6548 31.9898 30.6487 31.9926C30.5892 32.0208 30.5365 32.0633 30.4875 32.1121C30.4806 32.1189 30.4717 32.1216 30.4648 32.1288C30.4648 32.1288 30.4648 32.1292 30.4644 32.1292C30.464 32.1304 30.462 32.1308 30.4612 32.132C30.4183 32.1808 30.3915 32.2372 30.3677 32.2936C30.3632 32.3048 30.3535 32.3135 30.3494 32.3254C30.3308 32.3798 30.328 32.437 30.3267 32.4938C30.3263 32.5101 30.3199 32.5256 30.3207 32.5415C30.3247 32.5971 30.3434 32.6499 30.3632 32.7024C30.3693 32.719 30.3693 32.7369 30.3774 32.7528C30.4061 32.8116 30.4499 32.864 30.5005 32.9117C30.5066 32.9177 30.509 32.926 30.5159 32.9316L30.5163 32.932C30.5175 32.9331 30.5175 32.9343 30.5187 32.9347L30.5786 32.986L33.479 35.4996C33.9156 35.8781 34.1894 36.3842 34.2513 36.9244C34.3104 37.4432 34.1634 37.9278 33.837 38.2897C33.5114 38.6511 33.0392 38.8541 32.5071 38.8609C31.96 38.8597 31.4084 38.6631 30.9719 38.2853L27.852 35.5827L28.9754 34.3728C29.5597 33.7432 29.891 32.9496 29.9076 32.1373C29.9246 31.2964 29.6059 30.5409 29.0106 30.0086C28.5064 29.5585 27.8354 29.3107 27.1207 29.3107C27.0332 29.3107 26.9462 29.3178 26.8595 29.325C27.0004 28.9659 27.0834 28.5885 27.0911 28.206C27.1085 27.3651 26.7894 26.6096 26.1937 26.0773C25.6904 25.6272 25.0194 25.3794 24.3041 25.3794C24.0356 25.3794 23.7692 25.4167 23.5088 25.4819C23.6606 24.5297 23.3844 23.5677 22.6596 22.9194C22.1558 22.4694 21.4852 22.2219 20.7704 22.2219C19.8292 22.2219 18.9047 22.6362 18.2328 23.3592L17.5703 24.0726C17.4901 23.4041 17.1997 22.8071 16.7073 22.3666C16.2035 21.9165 15.5325 21.6687 14.8177 21.6687C13.8766 21.6687 12.952 22.083 12.2806 22.8059L11.5828 23.5571C10.9851 23.02 9.54058 21.4161 8.64352 17.8463C7.92713 15.1103 4.325 12.3131 1.43921 10.3382C3.33328 8.19754 8.26284 2.96624 9.73694 1.40473C10.7024 2.36718 12.992 4.3982 14.9047 4.24241C15.1275 4.22374 15.3692 4.19872 15.6272 4.1725C17.6747 3.96158 20.7062 3.64937 23.2733 5.62714C22.0244 6.67065 18.6927 9.46268 15.4296 12.2698C13.832 13.6437 13.0658 15.0193 13.1533 16.3575C13.259 17.9837 14.6023 18.8882 14.6922 18.9457C15.3296 19.3088 15.9755 19.4851 16.6672 19.4851C18.104 19.4851 19.5996 18.7455 21.8641 17.6254L22.7049 17.2107C23.7484 16.6987 24.5742 16.45 25.2282 16.45C26.1009 16.45 26.6683 16.8985 27.4535 17.519C27.758 17.7597 28.1035 18.033 28.4611 18.2721C29.942 19.4344 31.4229 19.9991 32.9886 19.9991C33.9293 19.9991 34.919 19.7926 36.0129 19.3676C36.1546 19.3354 36.3061 19.3191 36.4632 19.3191C37.8834 19.3191 39.4429 20.5866 39.9175 21.0025C39.922 21.0065 39.9236 21.0125 39.9285 21.0164L40.0633 21.1332C40.0637 21.1336 40.0657 21.1356 40.0657 21.1356L41.6933 22.5457L46.3625 26.5913C46.7918 26.9627 47.0505 27.4759 47.0902 28.0364L47.0904 28.0362ZM43.204 22.3346L40.8394 20.2858C40.6527 20.1091 38.5647 18.1794 36.4629 18.1794C36.1968 18.1794 35.938 18.2104 35.693 18.2711C35.6687 18.2771 35.6444 18.285 35.6206 18.2946C34.6511 18.6751 33.7897 18.8598 32.9887 18.8598C31.6972 18.8598 30.4532 18.3764 29.1528 17.3579C28.7981 17.1188 28.4854 16.8713 28.1825 16.6322C27.3232 15.9525 26.5113 15.3111 25.2287 15.3111C24.3787 15.3111 23.4121 15.5911 22.1862 16.1921L21.3414 16.608C19.2255 17.6542 17.8275 18.3454 16.6673 18.3454C16.1794 18.3454 15.7371 18.2231 15.3079 17.98C15.299 17.974 14.3813 17.34 14.3125 16.2838C14.2497 15.3166 14.8831 14.254 16.1956 13.1252C20.2902 9.60307 24.5014 6.0973 24.5435 6.06232C24.5609 6.04762 24.573 6.03412 24.5872 6.02021C24.5888 6.01902 24.5913 6.01823 24.5925 6.01664C24.5933 6.01545 24.5937 6.01426 24.5949 6.01306C24.6301 5.97811 24.6597 5.94157 24.684 5.88913C24.6893 5.87999 25.2675 4.97236 28.1675 4.97236C29.0949 4.97236 30.1645 5.0665 31.3473 5.252C31.9358 5.34415 32.4938 5.43591 33.0259 5.5229C35.2427 5.88556 36.9941 6.17195 38.6703 6.17195C41.2531 6.17195 43.3889 5.48198 46.0694 3.77193C46.8918 3.17849 47.5422 2.70981 47.782 2.70981C47.9335 2.70981 48.3133 3.17574 48.715 3.66869C49.6505 4.81541 52.8789 10.8316 54.6583 14.2401C52.5715 15.51 45.2773 20.0244 43.2037 22.3349L43.204 22.3346Z" fill="url(#paint0_linear_439_312)"/>
<defs>
<linearGradient id="paint0_linear_439_312" x1="1.18219e-06" y1="7.16667" x2="51.0626" y2="-1.79609" gradientUnits="userSpaceOnUse">
<stop stop-color="#D4EFFF"/>
<stop offset="0.332493" stop-color="#B8FFFC"/>
<stop offset="1" stop-color="#E4FFCC"/>
</linearGradient>
</defs>
</svg>
