<svg width="343" height="361" viewBox="0 0 343 361" fill="none" xmlns="http://www.w3.org/2000/svg">
<path d="M342.535 159.936C342.535 227.94 287.474 283.068 219.555 283.068C151.635 283.068 96.5745 227.94 96.5745 159.936C96.5745 91.9312 151.635 36.8035 219.555 36.8035C287.474 36.8035 342.535 91.9312 342.535 159.936Z" stroke="url(#paint0_linear_439_510)" stroke-width="0.926361"/>
<ellipse cx="208.113" cy="195.793" rx="87.3489" ry="87.2863" fill="url(#paint1_linear_439_510)"/>
<path d="M94.4955 269.123C49.1754 260.956 37.9756 277.452 31.7246 286.823C67.6681 169.959 121.062 207.439 171.071 165.794C211.077 132.479 236.707 154.689 244.52 169.959C286.611 164.754 320.227 182.366 331.775 191.823C257.023 169.439 232.539 190.261 209.358 207.439C186.177 224.617 159.35 280.81 94.4955 269.123Z" fill="url(#paint2_linear_439_510)"/>
<path d="M144.238 122.589C131.527 191.301 154.888 197.773 172.363 198.991C109.591 227.621 74.1748 171.26 72.3516 113.739C70.893 67.7231 97.9635 18.7397 111.681 0C127.829 12.2328 156.948 53.8765 144.238 122.589Z" fill="url(#paint3_linear_439_510)"/>
<path d="M167.94 123.889C136.477 178.651 161.949 199.108 174.452 199.108C97.8794 199.108 89.5425 52.5745 161.949 5.46509C172.109 22.6431 193.661 79.1224 167.94 123.889Z" fill="url(#paint4_linear_439_510)"/>
<path d="M54.9051 281.356C54.9051 248.666 72.7107 217.433 81.74 205.895C-10.7754 253.368 -6.21624 329.073 7.50132 361C35.1101 348.247 54.9051 322.219 54.9051 281.356Z" fill="url(#paint5_linear_439_510)"/>
<defs>
<linearGradient id="paint0_linear_439_510" x1="278.208" y1="269.533" x2="114.311" y2="94.925" gradientUnits="userSpaceOnUse">
<stop stop-color="#CFCFCF"/>
<stop offset="1" stop-color="#CFCFCF" stop-opacity="0.38"/>
</linearGradient>
<linearGradient id="paint1_linear_439_510" x1="273.904" y1="251.746" x2="135.965" y2="134.427" gradientUnits="userSpaceOnUse">
<stop stop-color="white" stop-opacity="0.56"/>
<stop offset="1" stop-color="white" stop-opacity="0.16"/>
</linearGradient>
<linearGradient id="paint2_linear_439_510" x1="244.721" y1="159.664" x2="64.115" y2="311.521" gradientUnits="userSpaceOnUse">
<stop stop-color="#F0FFD0"/>
<stop offset="1" stop-color="#C8E8B5"/>
</linearGradient>
<linearGradient id="paint3_linear_439_510" x1="122.329" y1="9.8035e-07" x2="88.3564" y2="192.134" gradientUnits="userSpaceOnUse">
<stop stop-color="#BFFCFD"/>
<stop offset="0.0001" stop-color="#C1FEFF"/>
<stop offset="1" stop-color="#A9DFE2"/>
</linearGradient>
<linearGradient id="paint4_linear_439_510" x1="179.989" y1="40.6375" x2="112.202" y2="152.974" gradientUnits="userSpaceOnUse">
<stop stop-color="#BEFFF7"/>
<stop offset="1" stop-color="#8ED3CE"/>
</linearGradient>
<linearGradient id="paint5_linear_439_510" x1="72.4298" y1="211.843" x2="13.0662" y2="351.34" gradientUnits="userSpaceOnUse">
<stop stop-color="#BDFFF7"/>
<stop offset="1" stop-color="#87D5D0"/>
</linearGradient>
</defs>
</svg>
